<svg id="Layer_1" data-name="Layer 1" xmlns="http://www.w3.org/2000/svg" viewBox="0 0 621.75 254.65"><defs><style>.cls-1{fill:#218b36;}</style></defs><title>Artboard 2 copy</title><path class="cls-1" d="M178.79,76.72c0,17.3-26.23,17.3-26.23,0S178.79,59.42,178.79,76.72Zm-24.22,25v90.16h22.22V101.68Z"/><path class="cls-1" d="M267.5,191.84v-47c0-13.66-7.47-24-21.67-24-13.67,0-23,11.48-23,25.14v45.9h-22v-90h19.86l1.45,12.2c9.11-8.92,18.22-13.48,29.51-13.48,21.13,0,38.07,15.85,38.07,44.08v47.18Z"/><path class="cls-1" d="M343.28,76.72v25.5h24.77v19.13h-25v38.8c0,8.56,4.74,12.75,11.66,12.75a25.55,25.55,0,0,0,10.75-2.73l6.19,18.94a49.58,49.58,0,0,1-18.4,3.82c-19.49.73-32.24-10.38-32.24-32.78v-38.8H304.29V102.22h16.76V79.09Z"/><path class="cls-1" d="M407.21,102l1.64,10.38c6.92-11.11,16.21-12.75,25.32-12.75,9.29,0,18.21,3.64,23.13,8.56l-10,19.31c-4.55-3.82-8.74-5.83-16-5.83-11.65,0-22.4,6.2-22.4,22.77v47.36H386.63V102Z"/><path class="cls-1" d="M537.63,102h21.31v89.8H538l-1.09-13.11c-5.1,10.56-19.12,15.66-29.14,15.84-26.6.19-46.27-16.21-46.27-47.72,0-31,20.58-47.18,46.81-47,12,0,23.5,5.65,28.6,14.58Zm-53.92,44.81c0,17.12,11.84,27.32,26.6,27.32,35,0,35-54.46,0-54.46C495.55,119.71,483.71,129.73,483.71,146.85Z"/><path class="cls-1" d="M90.17,108.23a18.62,18.62,0,0,1,18.61-18.62H127V63.66H109.17a45,45,0,0,0-44.95,45v17.85h26Z"/><path class="cls-1" d="M89.73,173.46a18.61,18.61,0,0,1,18.61-18.61h18.24V128.9H108.73a44.94,44.94,0,0,0-44.95,44.95V191.7h26Z"/></svg>