<svg xmlns="http://www.w3.org/2000/svg" viewBox="0 0 210.87 277.01"><defs><style>.cls-1{fill:#008e26;}</style></defs><g id="Layer_2" data-name="Layer 2"><g id="Layer_1-2" data-name="Layer 1"><path class="cls-1" d="M105.77,277c-27.15-.81-53.55-1.94-78.3-12.15-8.45-3.49-16-9.26-23.66-14.49a9.83,9.83,0,0,1-3.81-7c.24-18,.26-35.94,4.09-53.68,4.24-19.64,15.82-32.8,34.49-39.37,10.47-3.68,21.4-6.11,32.2-8.79a7.66,7.66,0,0,1,5.81,1.25c15.71,12.53,40.21,12.92,56.34.78,1.47-1.11,3.59-2.42,5.17-2.16,15.81,2.62,31.35,6.21,45.3,14.63,15.64,9.43,22.34,24.26,24.24,41.53,1.51,13.71,1.84,27.55,3.14,41.29.56,5.87-1.76,9.81-5.88,13.39C194,261.66,181,266.42,167.36,270,146.89,275.42,125.94,276.23,105.77,277Z"/><path class="cls-1" d="M48.86,64.46c1.4-10,2-20.21,4.34-30C57.84,14.52,71.28,3.23,91.2.77a114.63,114.63,0,0,1,30.23.51C140.24,4,152.57,15.35,157,33.82,162.13,55.29,163.57,77,154.72,98c-6.22,14.8-16.05,26.48-31.06,33-22.79,9.85-48.08.61-62.7-22.63C53,95.73,49,80.08,48.86,64.46Z"/></g></g></svg>