<svg xmlns="http://www.w3.org/2000/svg" viewBox="0 0 230 230"><defs><style>.cls-1{fill:#fff;}.cls-2{fill:#f2524a;}</style></defs><g id="Layer_2" data-name="Layer 2"><g id="Layer_1-2" data-name="Layer 1"><ellipse class="cls-1" cx="117.98" cy="119.72" rx="88.4" ry="83.6"/><path class="cls-2" d="M230,115.38C230.56,178,177.77,231.7,111.89,230,52.7,228.39-.07,180.32,0,114.74A114.76,114.76,0,0,1,117.32,0C180,1.05,230.7,52.92,230,115.38ZM115.22,134v-.77h75.87c2.42,0,3.93-1.15,3.88-2.91,0-2-1.49-3.1-4-3.11-3.82,0-7.64-.07-11.45.05-1.61,0-2.21-.53-2.61-2.06-4.55-17.33-9.2-34.64-13.76-52-1.06-4-2.85-7.49-6.37-9.89-7.76-5.27-18.57-3.22-23.24,6.48-2.37,4.92-6.51,7.23-11.88,7.06-5.19-.17-8.79-2.93-10.91-7.62-1.18-2.6-2.28-5.23-3.39-7.86-1.71-4.06-4.18-7.5-8.09-9.69C89,46,76.68,50.82,72.89,62.24,71,68,69.31,73.79,67.54,79.57q-7.1,23.09-14.13,46.18c-.46,1.53-1.15,2.07-2.7,2-2.32-.1-4.64,0-7,0-1.9,0-3.82,0-5.71.18a2.78,2.78,0,0,0-2.82,2.91,3,3,0,0,0,2.71,3.08,11.62,11.62,0,0,0,2.44.1Zm.62,27.37c.55,1,.88,1.56,1.22,2.14,8.2,13.74,22.61,19.54,37,16.24,14.75-3.39,25.77-16.81,25.89-31.06,0-3.59-.93-4.59-4.6-4.59H56.48c-4,0-5.18,1.4-4.65,5.47.12,1,.13,1.91.27,2.85,2.27,15.18,15.74,26.7,29.08,27.92,9,.81,17-1.12,24.25-6.43A35.65,35.65,0,0,0,115.84,161.4Z"/><path class="cls-2" d="M59.3,127.31q3-9.86,6-19.66Q71.89,86.22,78.47,64.8C80.7,57.56,87,54,93.79,56a12,12,0,0,1,7.67,7.14c1.25,2.87,2.39,5.79,3.71,8.62,3.56,7.64,9.62,11.5,18,11.15a17.29,17.29,0,0,0,15.27-9.36c1.58-2.88,3.22-5.53,6.62-6.51,5.44-1.57,10.38,1.24,11.91,6.93,3.08,11.47,6.09,23,9.12,34.45q2.33,8.76,4.64,17.52c.08.31.14.63.29,1.36Zm105.05-6.37c0-.22-.18-.81-.35-1.4-1.75-6.13-3.52-12.26-5.27-18.4-.89-3.13-1.7-6.29-2.63-9.41-.44-1.49-1.54-2.72-3.1-2.38a5.35,5.35,0,0,0-2.72,2.29c-.36.52-.06,1.6.15,2.36,1.48,5.44,3,10.86,4.55,16.28,1.13,4,2.25,8,3.48,11.92.48,1.55,1.61,2.65,3.36,2.32S164.43,123.12,164.35,120.94ZM146,78.62c.67,2.12,1.07,3.78,1.73,5.32a2.42,2.42,0,0,0,3.41,1.31,4.06,4.06,0,0,0,2-2.85,12.47,12.47,0,0,0-1.32-4.84,2.42,2.42,0,0,0-3.28-1.29A10.86,10.86,0,0,0,146,78.62Z"/><path class="cls-2" d="M112.3,150.59c.08,9.24-9.4,22-22.85,23.6-15.94,1.94-29.67-8.46-31.31-23.6Z"/><path class="cls-2" d="M173.3,150.55c1.23,9.65-11.83,23-23,23.7-16.44,1-31-10-30.93-23.7Z"/><path class="cls-1" d="M164.35,120.94c.08,2.18-.89,3.28-2.53,3.58s-2.88-.77-3.36-2.32c-1.23-4-2.35-7.94-3.48-11.92-1.54-5.42-3.07-10.84-4.55-16.28-.21-.76-.51-1.84-.15-2.36A5.35,5.35,0,0,1,153,89.35c1.56-.34,2.66.89,3.1,2.38.93,3.12,1.74,6.28,2.63,9.41,1.75,6.14,3.52,12.27,5.27,18.4C164.17,120.13,164.3,120.72,164.35,120.94Z"/><path class="cls-1" d="M146,78.62a10.86,10.86,0,0,1,2.55-2.35,2.42,2.42,0,0,1,3.28,1.29,12.47,12.47,0,0,1,1.32,4.84,4.06,4.06,0,0,1-2,2.85,2.42,2.42,0,0,1-3.41-1.31C147.09,82.4,146.69,80.74,146,78.62Z"/></g></g></svg>