<svg xmlns="http://www.w3.org/2000/svg" viewBox="0 0 230 230"><defs><style>.cls-1{fill:#f2524a;}.cls-2{fill:#fff;}</style></defs><g id="Layer_2" data-name="Layer 2"><g id="Layer_1-2" data-name="Layer 1"><path class="cls-1" d="M230,112.13c1.55,58.94-42.24,111.49-103.54,117.31C59.36,235.82,6.06,186.48.52,126.05-5.61,59.33,43.73,7.4,101.32.79,170.56-7.16,228.48,46.31,230,112.13ZM100.11,130.59h.28c0,3.73-.3,7.48.07,11.18a13.47,13.47,0,0,0,12.05,11.88c7,.47,13-3.47,14.66-10a44.75,44.75,0,0,0,.75-8.06,1.8,1.8,0,0,1,1.48-2c5.37-1.81,10.92-3.35,16-5.88,10.13-5.09,17.51-12.92,21.11-23.93,2.62-8,2.49-16.18,1-24.34-2-11.14-6.72-21-15.52-28.33-13-10.88-28.22-13.21-44.24-9.91-14.33,3-25.09,11.31-31.51,24.7a29.1,29.1,0,0,0-2.91,17.6A13.64,13.64,0,0,0,87.11,94.74c7.17-.37,13-5.52,13.46-12.57.29-4.37,2.43-7.4,5.49-10,6.66-5.66,16.92-6.14,25.39-1.31,11.09,6.31,12.76,19.37,3.42,28a34.12,34.12,0,0,1-20.78,8.84c-8.3.69-13.92,6.34-14,14.73C100.09,125.15,100.11,127.87,100.11,130.59ZM114,162.34a13.77,13.77,0,0,0,0,27.54,13.75,13.75,0,0,0,13.86-13.79A13.56,13.56,0,0,0,114,162.34Z"/><path class="cls-2" d="M100.11,130.59c0-2.72,0-5.44,0-8.15.06-8.39,5.68-14,14-14.73a34.12,34.12,0,0,0,20.78-8.84c9.34-8.64,7.67-21.7-3.42-28C123,66,112.72,66.51,106.06,72.17c-3.06,2.6-5.2,5.63-5.49,10-.48,7-6.29,12.2-13.46,12.57A13.64,13.64,0,0,1,73.33,83.52a29.1,29.1,0,0,1,2.91-17.6c6.42-13.39,17.18-21.74,31.51-24.7,16-3.3,31.26-1,44.24,9.91,8.8,7.37,13.53,17.19,15.52,28.33,1.45,8.16,1.58,16.32-1,24.34-3.6,11-11,18.84-21.11,23.93-5,2.53-10.59,4.07-16,5.88a1.8,1.8,0,0,0-1.48,2,44.75,44.75,0,0,1-.75,8.06c-1.65,6.54-7.64,10.48-14.66,10a13.47,13.47,0,0,1-12.05-11.88c-.37-3.7-.07-7.45-.07-11.18Z"/><path class="cls-2" d="M114,162.34a13.56,13.56,0,0,1,13.84,13.75,13.8,13.8,0,1,1-27.6-.12A13.6,13.6,0,0,1,114,162.34Z"/></g></g></svg>